<?xml version="1.0" encoding="UTF-8" standalone="no"?>
<!-- Created with Inkscape (http://www.inkscape.org/) -->

<svg
   width="60mm"
   height="60mm"
   viewBox="0 0 60 59.999999"
   version="1.1"
   id="svg5"
   inkscape:export-filename="/home/john-ockenden/bitmap.png"
   inkscape:export-xdpi="27.09"
   inkscape:export-ydpi="27.09"
   inkscape:version="1.1.2 (0a00cf5339, 2022-02-04)"
   sodipodi:docname="pumpkin_orange.svg"
   xmlns:inkscape="http://www.inkscape.org/namespaces/inkscape"
   xmlns:sodipodi="http://sodipodi.sourceforge.net/DTD/sodipodi-0.dtd"
   xmlns="http://www.w3.org/2000/svg"
   xmlns:svg="http://www.w3.org/2000/svg">
  <sodipodi:namedview
     id="namedview7"
     pagecolor="#ffffff"
     bordercolor="#666666"
     borderopacity="1.0"
     inkscape:pageshadow="2"
     inkscape:pageopacity="0.0"
     inkscape:pagecheckerboard="0"
     inkscape:document-units="mm"
     showgrid="false"
     fit-margin-top="0"
     fit-margin-left="0"
     fit-margin-right="0"
     fit-margin-bottom="0"
     borderlayer="true"
     width="60mm"
     showguides="true"
     inkscape:guide-bbox="true"
     inkscape:zoom="1.1474186"
     inkscape:cx="63.185308"
     inkscape:cy="127.24214"
     inkscape:window-width="1920"
     inkscape:window-height="1007"
     inkscape:window-x="0"
     inkscape:window-y="0"
     inkscape:window-maximized="1"
     inkscape:current-layer="layer2">
    <sodipodi:guide
       position="108.37733,-26.701863"
       orientation="0,-1"
       id="guide2179" />
  </sodipodi:namedview>
  <defs
     id="defs2" />
  <g
     inkscape:groupmode="layer"
     id="layer2"
     inkscape:label="Layer 2"
     transform="translate(-13.240949,-13.994386)">
    <g
       id="g2187"
       transform="translate(2.6620665,3.4068949)">
      <path
         style="fill:#5aa02c;stroke:none;stroke-width:0.264583px;stroke-linecap:butt;stroke-linejoin:miter;stroke-opacity:1"
         d="m 37.510005,16.090279 3.215368,-2.095893 1.376785,2.391692 0.567127,2.644215 0.36943,3.863287 0.545356,2.223058 1.10672,1.52856 2.524924,2.352434 -13.346649,0.544314 2.169448,-1.928453 1.872713,-1.586025 1.016013,-1.91171 0.328901,-2.494962 -0.199424,-2.464652 -0.77197,-2.118488 z"
         id="path1190" />
      <path
         style="fill:#ff6600;stroke:none;stroke-width:0.264583px;stroke-linecap:butt;stroke-linejoin:miter;stroke-opacity:1"
         d="m 26.075383,65.406158 -2.834042,-0.6375 -3.331892,-2.038205 -2.728751,-2.792399 -2.471269,-4.185483 -1.46848,-6.550057 0.221924,-5.334828 1.674792,-6.002843 3.066622,-3.988818 4.332902,-3.502454 4.702445,-0.922168 6.625156,-0.722641 15.027616,-0.266631 7.044627,1.102963 4.242691,1.536798 3.399314,3.153886 2.996785,4.834829 1.340993,6.22394 -0.138835,4.65446 -1.371817,6.063019 -3.000055,4.792091 -4.059047,3.210542 -3.867962,1.444974 -7.154037,1.268539 c 0,0 -6.034951,0.43822 -6.991601,0.432366 -0.844953,-0.0052 -8.416478,-0.518498 -8.416478,-0.518498 z"
         id="path870"
         sodipodi:nodetypes="ccccccccccccccccccccccccscc" />
      <path
         style="fill:none;stroke:#ff9955;stroke-width:0.865;stroke-linecap:butt;stroke-linejoin:miter;stroke-miterlimit:4;stroke-dasharray:none;stroke-opacity:1"
         d="m 27.951639,65.60872 c -1.333103,-1.415093 -2.722686,-2.791678 -4.020788,-4.230635 -0.759385,-1.703884 -1.614017,-3.377316 -2.313551,-5.100336 -0.421117,-2.306364 -0.896566,-4.60981 -1.28382,-6.917992 0.218184,-2.558405 0.375552,-5.131141 0.631603,-7.680624 0.910307,-2.208316 1.761036,-4.453551 2.708424,-6.638889 1.168608,-1.275785 2.261712,-2.631912 3.477909,-3.857057 l 1.916804,-1.478419"
         id="path1473"
         sodipodi:nodetypes="cccccccc" />
      <path
         style="fill:none;stroke:#ff9955;stroke-width:0.865;stroke-linecap:butt;stroke-linejoin:miter;stroke-miterlimit:4;stroke-dasharray:none;stroke-opacity:1"
         d="m 35.620933,66.264368 -3.298968,-4.00723 -2.371759,-6.158439 -0.851617,-6.835066 0.202864,-7.173603 2.109205,-6.337824 4.444662,-6.366012"
         id="path1541"
         sodipodi:nodetypes="ccccccc" />
      <path
         style="fill:none;stroke:#ff9955;stroke-width:0.865;stroke-linecap:butt;stroke-linejoin:miter;stroke-miterlimit:4;stroke-dasharray:none;stroke-opacity:1"
         d="m 45.735763,66.425833 3.298968,-4.00723 2.371759,-6.158439 0.851617,-6.835066 -0.202864,-7.173603 -2.109205,-6.337824 -4.878999,-7.053987"
         id="path1675" />
      <path
         style="fill:none;stroke:#ff9955;stroke-width:0.865;stroke-linecap:butt;stroke-linejoin:miter;stroke-miterlimit:4;stroke-dasharray:none;stroke-opacity:1"
         d="m 53.734536,65.386385 c 1.333103,-1.415093 2.527028,-2.460476 3.82513,-3.899433 0.759385,-1.703884 1.614017,-3.377316 2.313551,-5.100336 0.421117,-2.306364 0.896566,-4.60981 1.28382,-6.917992 C 60.938853,46.910219 60.781485,44.337483 60.525434,41.788 59.615127,39.579684 58.764398,37.334449 57.81701,35.149111 56.648402,33.873326 55.555298,32.517199 54.339101,31.292054 l -2.567724,-2.007938"
         id="path1677"
         sodipodi:nodetypes="cccccccc" />
    </g>
  </g>
</svg>
